<?xml version="1.0" encoding="UTF-8"?>
<svg fill="none" version="1.1" viewBox="0 0 2471.8 1405.9" xmlns="http://www.w3.org/2000/svg">
 <g fill="#12263a">
  <path d="m242.09 472.72v58.55c92 4.8 165.12 80.91 165.12 174.11 0 96.29-78.06 174.36-174.35 174.36-96.3 0-174.36-78.07-174.36-174.36 0-93.58 73.73-169.92 166.27-174.15v-58.55c-124.86 4.26-224.77 106.8-224.77 232.7 0 128.6 104.25 232.86 232.86 232.86 128.6 0 232.85-104.26 232.85-232.86 0-125.51-99.3-227.81-223.62-232.66z"/>
  <path d="m1023.2 784.35c4.58 61.47 52.31 102.02 122.28 102.02 61.47 0 105.29-28.12 105.29-77.82 0-56.89-56.24-68.66-125.56-80.43-73.89-12.43-149.75-36.62-149.75-125.56 0-77.82 63.43-130.13 156.29-130.13 102.02 0 164.79 56.89 170.03 139.29h-58.86c-6.54-52.97-49.04-87.63-111.17-87.63-59.5 0-99.4 26.16-99.4 75.2 0 54.93 55.59 66.05 124.25 77.82 74.55 12.43 151.06 37.27 151.06 126.21 0 79.12-66.7 134.71-162.83 134.71-111.82 0-177.21-63.43-180.48-153.68z"/>
  <path d="m529.22 937.97v-465.17h148.85c145.53 0 233.92 93.03 233.92 232.58 0 138.88-88.39 232.59-233.92 232.59zm57.82-53.17h91.04c112.97 0 174.77-71.1 174.77-179.42 0-108.98-61.8-179.42-174.77-179.42h-91.04z"/>
  <path d="m2402.8 705.32c40.18-70.18 61.41-150.08 61.41-231.43 0-62.95-12.33-124.03-36.65-181.52-23.49-55.53-57.11-105.4-99.93-148.22-42.83-42.83-92.7-76.45-148.23-99.94-54.85-23.2-112.96-35.48-172.85-36.56v-0.09h-8.66c-62.96 0-124.03 12.33-181.52 36.65-55.53 23.49-105.4 57.11-148.23 99.94-42.82 42.82-76.44 92.69-99.93 148.22-24.32 57.49-36.65 118.57-36.65 181.52 0 62.7 12.24 123.55 36.37 180.85 23.31 55.34 56.69 105.1 99.22 147.87 42.52 42.77 92.06 76.44 147.25 100.09 18.68 8.007 37.77 14.737 57.26 20.19h-343.82v8.66c0 62.95 12.33 124.02 36.65 181.52 23.49 55.53 57.11 105.4 99.93 148.22 42.83 42.83 92.7 76.45 148.23 99.93 55.83 23.62 115.03 35.93 176.04 36.62v0.03h5.01c0.15 0 0.31 0 0.47 0.01v-0.01h0.74c62.95 0 124.02-12.33 181.51-36.65 55.53-23.49 105.41-57.11 148.23-99.93 42.82-42.83 76.45-92.69 99.93-148.23 24.32-57.49 36.65-118.56 36.65-181.51 0-62.7-12.24-123.55-36.37-180.86-6.57-15.58-13.92-30.703-22.06-45.37zm-583.41 639.96c-53.46-22.62-101.48-55-142.72-96.24s-73.62-89.25-96.23-142.72c-22.3-52.71-34.12-108.55-35.2-166.11h429.64c2.41 6.47 7.45 11.65 13.81 14.27v426.04c-58.68-0.69-115.61-12.54-169.3-35.24zm-139.96-554.88c-40.95-41.19-73.09-89.1-95.54-142.38-23.23-55.17-35.01-113.76-35.01-174.13 0-60.63 11.87-119.43 35.28-174.77 22.61-53.47 54.99-101.49 96.23-142.73s89.26-73.62 142.72-96.23c52.72-22.29 108.55-34.12 166.12-35.2v424.05c-9.3 3.57-15.91 12.59-15.91 23.14 0 13.69 11.1 24.79 24.79 24.79 9.7 0 18.08-5.56 22.16-13.67 52.37 2.9 103.17 14.77 151.3 35.39 53.14 22.76 100.85 55.19 141.79 96.37 27.08 27.25 50.31 57.43 69.43 90.16-38.82 64.45-93.53 118.51-158.5 156.52-61.74 36.13-131.55 56.88-203.18 60.57-3.67-9.1-12.58-15.52-23-15.52-10.41 0-19.32 6.43-22.99 15.53-53.29-2.64-104.97-14.55-153.9-35.52-53.14-22.76-100.84-55.18-141.79-96.37zm493.22-730.24c53.47 22.61 101.49 54.99 142.73 96.23s73.61 89.26 96.23 142.73c23.41 55.34 35.28 114.14 35.28 174.77 0 74.97-18.71 148.66-54.23 214.08-18.84-30.74-41.25-59.23-67.02-85.15-42.51-42.77-92.06-76.44-147.25-100.08-49.72-21.3-102.18-33.61-156.25-36.7-2.03-7.99-7.93-14.44-15.59-17.2v-423.87c57.55 1.08 113.39 12.9 166.1 35.19zm271.17 862.73h-319.89c38.1-10.67 74.8-26.16 109.11-46.23 64.61-37.8 119.46-90.88 159.39-154.09 5.97 11.34 11.46 22.957 16.47 34.85 22.12 52.52 33.85 108.15 34.92 165.47zm-35.19 183.43c-22.61 53.47-54.99 101.48-96.23 142.72-41.23 41.24-89.25 73.62-142.72 96.23-52.71 22.3-108.55 34.13-163.67 35.2v-425.42c7.08-2.38 12.74-7.87 15.34-14.84h422.47c-1.07 57.56-12.89 113.4-35.19 166.11z" stroke="#12263a" stroke-width="15.118"/>
 </g>
</svg>
