<svg width="108" height="32" viewBox="0 0 108 32" fill="none" xmlns="http://www.w3.org/2000/svg">
<g clip-path="url(#clip0_4801_11312)">
<path d="M6.56722 7.58102C7.57299 7.05738 8.71285 6.78711 9.97843 6.78711C11.4284 6.78711 12.7527 7.15028 13.9428 7.86818C15.1413 8.58608 16.0801 9.59958 16.7673 10.8918C17.4546 12.184 17.7899 13.6789 17.7899 15.3597C17.7899 17.0404 17.4462 18.5437 16.7673 19.8782C16.0801 21.2042 15.1413 22.243 13.9428 22.9778C12.7443 23.7211 11.42 24.0842 9.97843 24.0842C8.71285 24.0842 7.58137 23.8224 6.60075 23.3072C5.61175 22.792 4.80714 22.1501 4.18692 21.3731V31.77H0.742188V7.05738H4.17854V9.52357C4.76523 8.755 5.55308 8.10466 6.55884 7.58102H6.56722ZM13.5824 12.3698C13.1131 11.5252 12.4845 10.8918 11.7134 10.4526C10.9423 10.0134 10.1125 9.80228 9.22411 9.80228C8.33569 9.80228 7.53946 10.0219 6.76838 10.4695C5.99729 10.9171 5.36869 11.5675 4.89934 12.4121C4.42998 13.2566 4.18692 14.2701 4.18692 15.4188C4.18692 16.5674 4.4216 17.5809 4.89934 18.4424C5.36869 19.3039 5.99729 19.9542 6.76838 20.4018C7.53946 20.8495 8.36083 21.0691 9.22411 21.0691C10.0874 21.0691 10.9423 20.841 11.7134 20.3849C12.4845 19.9289 13.1131 19.2616 13.5824 18.3917C14.0518 17.5218 14.2948 16.5083 14.2948 15.3512C14.2948 14.1941 14.0601 13.1975 13.5824 12.3529V12.3698Z" fill="#014550"/>
<path d="M25.2449 1.31348V23.8133H21.8086V1.31348H25.2449Z" fill="#014550"/>
<path d="M33.8172 7.05664V23.8132H30.3809V7.05664H33.8172Z" fill="#014550"/>
<path d="M50.8468 7.60538C51.8861 8.15436 52.6907 8.96516 53.2774 10.0378C53.8641 11.1104 54.1491 12.4111 54.1491 13.9313V23.813H50.7379V14.4465C50.7379 12.9432 50.3691 11.7945 49.6231 10.9922C48.8772 10.1898 47.8631 9.79286 46.5723 9.79286C45.2816 9.79286 44.2675 10.1898 43.5131 10.9922C42.7588 11.7945 42.3817 12.9432 42.3817 14.4465V23.813H38.9453V7.0564H42.3817V8.97361C42.9432 8.28105 43.664 7.74896 44.5357 7.36045C45.4073 6.97194 46.3377 6.78613 47.3267 6.78613C48.6342 6.78613 49.8075 7.0564 50.8384 7.60538H50.8468Z" fill="#014550"/>
<path d="M63.1407 9.88575V19.1593C63.1407 19.7843 63.2832 20.2404 63.5765 20.5106C63.8698 20.7809 64.3643 20.9245 65.0684 20.9245H67.1805V23.813H64.4649C62.9144 23.813 61.7326 23.4498 60.9028 22.715C60.0815 21.9887 59.6624 20.7978 59.6624 19.1593V9.88575H57.7012V7.05639H59.6624V2.89258H63.1323V7.05639H67.1721V9.88575H63.1323H63.1407Z" fill="#014550"/>
<path d="M82.9463 7.60564C83.9436 8.15462 84.7231 8.96543 85.3014 10.0381C85.8797 11.1107 86.1647 12.4113 86.1647 13.9316V23.8133H82.7535V14.4468C82.7535 12.9434 82.3847 11.7948 81.6388 10.9924C80.8928 10.1901 79.8787 9.79312 78.588 9.79312C77.2972 9.79312 76.2831 10.1901 75.5288 10.9924C74.7745 11.7948 74.3973 12.9434 74.3973 14.4468V23.8133H70.9609V1.31348H74.3973V9.00766C74.984 8.2982 75.7215 7.74922 76.6183 7.36916C77.5152 6.9891 78.4958 6.79484 79.5602 6.79484C80.8258 6.79484 81.9573 7.06511 82.9546 7.61409L82.9463 7.60564Z" fill="#014550"/>
</g>
<path d="M107.217 29.3145H10.4805V31.6844H107.217V29.3145Z" fill="#3BF084"/>
<defs>
<clipPath id="clip0_4801_11312">
<rect width="85.4143" height="31.3764" fill="white" transform="translate(0.744141 0.401367)"/>
</clipPath>
</defs>
</svg>
