<svg width="1920" height="700" viewBox="0 0 1920 700" fill="none" xmlns="http://www.w3.org/2000/svg">
<path d="M492.19 277.337L455.922 235.093C454.826 233.821 453.182 233.064 451.409 233.064H252.078C250.337 233.064 248.661 233.821 247.565 235.093L211.297 277.337C208.234 280.88 210.942 286.18 215.81 286.18H487.677C492.545 286.18 495.221 280.88 492.19 277.337Z" fill="#12DCE9"/>
<path d="M420.979 323.531C419.98 321.775 418.013 320.684 415.886 320.684H287.544C285.417 320.684 283.45 321.775 282.451 323.531L258.272 365.775C256.208 369.409 258.981 373.77 263.365 373.77H440.097C444.481 373.77 447.254 369.379 445.19 365.775L421.012 323.531H420.979Z" fill="#12DCE9"/>
<path d="M384.458 411.784C383.652 409.694 381.524 408.301 379.139 408.301H324.301C321.915 408.301 319.788 409.694 318.982 411.784L302.411 454.27C301.057 457.753 303.797 461.417 307.73 461.417H395.742C399.675 461.417 402.415 457.753 401.061 454.27L384.49 411.784H384.458Z" fill="#12DCE9"/>
<path d="M680.156 461.605V277.036H602.307V233.064H803.135V277.036H725.286V461.605H680.156Z" fill="#1D2035"/>
<path d="M847.273 466.234C800.986 466.234 768.585 432.965 768.585 386.1C768.585 339.524 800.986 306.544 847.273 306.544C887.195 306.544 917.86 337.209 917.86 385.232V399.118H812.268C814.293 418.501 825.286 431.23 847.562 431.23C862.605 431.23 872.441 423.129 874.177 412.715H916.992C912.364 445.405 884.013 466.234 847.273 466.234ZM812.557 372.792H874.756C873.888 356.013 863.762 343.574 845.537 343.574C825.286 343.574 815.161 355.435 812.557 372.792Z" fill="#1D2035"/>
<path d="M944.591 461.605V311.173H987.406V332.87C997.531 316.669 1014.31 306.544 1038.32 306.544C1062.33 306.544 1078.24 316.091 1086.63 335.184C1101.39 314.644 1121.93 306.544 1145.07 306.544C1182.68 306.544 1201.19 330.556 1201.19 376.553V461.605H1157.51V378.868C1157.51 356.881 1146.52 343.574 1128 343.574C1107.17 343.574 1094.16 359.774 1094.16 384.653V461.605H1050.76V378.868C1050.76 356.881 1039.77 343.574 1021.25 343.574C1000.42 343.574 987.406 359.774 987.406 384.653V461.605H944.591Z" fill="#1D2035"/>
<path d="M1304.39 466.234C1258.1 466.234 1225.7 432.965 1225.7 386.1C1225.7 339.524 1258.1 306.544 1304.39 306.544C1344.31 306.544 1374.98 337.209 1374.98 385.232V399.118H1269.39C1271.41 418.501 1282.4 431.23 1304.68 431.23C1319.72 431.23 1329.56 423.129 1331.29 412.715H1374.11C1369.48 445.405 1341.13 466.234 1304.39 466.234ZM1269.67 372.792H1331.87C1331.01 356.013 1320.88 343.574 1302.65 343.574C1282.4 343.574 1272.28 355.435 1269.67 372.792Z" fill="#1D2035"/>
<path d="M1401.71 461.605V233.064H1444.52V461.605H1401.71Z" fill="#1D2035"/>
<path d="M1500.02 292.658C1484.11 292.658 1472.53 281.086 1472.53 265.465C1472.53 249.843 1484.11 238.85 1500.02 238.85C1515.64 238.85 1527.21 249.843 1527.21 265.465C1527.21 281.086 1515.64 292.658 1500.02 292.658ZM1478.32 461.605V311.173H1521.42V461.605H1478.32Z" fill="#1D2035"/>
<path d="M1629.58 466.234C1582.42 466.234 1549.44 432.965 1549.44 386.1C1549.44 339.524 1582.42 306.544 1629.58 306.544C1676.73 306.544 1710 339.524 1710 386.1C1710 432.965 1676.73 466.234 1629.58 466.234ZM1629.58 429.205C1651.56 429.205 1666.9 411.268 1666.9 386.1C1666.9 361.221 1651.56 343.574 1629.58 343.574C1607.88 343.574 1592.55 361.221 1592.55 386.1C1592.55 411.268 1607.88 429.205 1629.58 429.205Z" fill="#1D2035"/>
</svg>
